<?xml version="1.0" encoding="UTF-8"?>
<svg width="14px" height="14px" viewBox="0 0 14 14" version="1.1" xmlns="http://www.w3.org/2000/svg" xmlns:xlink="http://www.w3.org/1999/xlink">
    <!-- Generator: Sketch 47.1 (45422) - http://www.bohemiancoding.com/sketch -->
    <title>icon_topic</title>
    <desc>Created with Sketch.</desc>
    <defs></defs>
    <g id="Bhub-3.0-v2" stroke="none" stroke-width="1" fill="none" fill-rule="evenodd">
        <g id="Project---Automatic-Contributions-Mobilize-Savings" transform="translate(-934.000000, -544.000000)" fill="#474D57">
            <path d="M934.256348,552.866211 C933.914551,552.524414 933.914551,551.957031 934.256348,551.615234 L941.789551,544.082031 C941.837402,544.03418 941.919434,544 941.987793,544 L947.121582,544 C947.606934,544 947.996582,544.389648 947.996582,544.875 L947.996582,550.008789 C947.996582,550.077148 947.962402,550.15918 947.914551,550.207031 L940.381348,557.740234 C940.039551,558.082031 939.472168,558.082031 939.130371,557.740234 L934.256348,552.866211 Z M943.621582,547.0625 C943.621582,547.793945 944.202637,548.375 944.934082,548.375 C945.665527,548.375 946.246582,547.793945 946.246582,547.0625 C946.246582,546.331055 945.665527,545.75 944.934082,545.75 C944.202637,545.75 943.621582,546.331055 943.621582,547.0625 Z" id="icon_topic"></path>
        </g>
    </g>
</svg>