<?xml version="1.0" encoding="UTF-8"?>
<svg width="12px" height="12px" viewBox="0 0 12 12" version="1.1" xmlns="http://www.w3.org/2000/svg" xmlns:xlink="http://www.w3.org/1999/xlink">
    <!-- Generator: Sketch 47.1 (45422) - http://www.bohemiancoding.com/sketch -->
    <title>icon_plus</title>
    <desc>Created with Sketch.</desc>
    <defs></defs>
    <g id="Bhub-3.0-v2" stroke="none" stroke-width="1" fill="none" fill-rule="evenodd">
        <g id="Project---Automatic-Contributions-Mobilize-Savings" transform="translate(-107.000000, -766.000000)" fill="#FFFFFF">
            <g id="First-Look" transform="translate(0.000000, 58.000000)">
                <g id="Group-3" transform="translate(19.000000, 696.000000)">
                    <path d="M98.9387528,20.9175947 L96.0211581,18 L98.9387528,15.0824053 C98.9777283,15.032294 99,14.9766147 99,14.9097996 C99,14.8429844 98.9777283,14.7928731 98.9387528,14.7427617 L97.2572383,13.0612472 C97.2071269,13.0222717 97.1570156,13 97.0902004,13 C97.0233853,13 96.967706,13.0222717 96.9175947,13.0612472 L94,15.9788419 L91.0824053,13.0612472 C91.032294,13.0222717 90.9766147,13 90.9097996,13 C90.8429844,13 90.7928731,13.0222717 90.7427617,13.0612472 L89.0612472,14.7427617 C89.0222717,14.7928731 89,14.8429844 89,14.9097996 C89,14.9766147 89.0222717,15.032294 89.0612472,15.0824053 L91.9788419,18 L89.0612472,20.9175947 C89.0222717,20.967706 89,21.0233853 89,21.0902004 C89,21.1570156 89.0222717,21.2071269 89.0612472,21.2572383 L90.7427617,22.9387528 C90.7928731,22.9777283 90.8429844,23 90.9097996,23 C90.9766147,23 91.032294,22.9777283 91.0824053,22.9387528 L94,20.0211581 L96.9175947,22.9387528 C96.967706,22.9777283 97.0233853,23 97.0902004,23 C97.1570156,23 97.2071269,22.9777283 97.2572383,22.9387528 L98.9387528,21.2572383 C98.9777283,21.2071269 99,21.1570156 99,21.0902004 C99,21.0233853 98.9777283,20.967706 98.9387528,20.9175947 Z" id="icon_plus" transform="translate(94.000000, 18.000000) rotate(-45.000000) translate(-94.000000, -18.000000) "></path>
                </g>
            </g>
        </g>
    </g>
</svg>