<?xml version="1.0" encoding="UTF-8"?>
<svg width="14px" height="14px" viewBox="0 0 14 14" version="1.1" xmlns="http://www.w3.org/2000/svg" xmlns:xlink="http://www.w3.org/1999/xlink">
    <!-- Generator: Sketch 47.1 (45422) - http://www.bohemiancoding.com/sketch -->
    <title>icon_location</title>
    <desc>Created with Sketch.</desc>
    <defs></defs>
    <g id="Bhub-3.0-v2" stroke="none" stroke-width="1" fill="none" fill-rule="evenodd">
        <g id="Project-Desktop---Automatic-Contributions-Mobilize-Savings" transform="translate(-934.000000, -509.000000)" fill="#474D57">
            <path d="M941,509 C944.875977,509 948,512.124023 948,516 C948,519.875977 944.875977,523 941,523 C937.124023,523 934,519.875977 934,516 C934,512.124023 937.124023,509 941,509 Z M941.875,521.543945 C942.75,521.543945 944.5,520.081055 944.5,518.043945 C944.5,516.90918 943.59082,516 942.456055,516 L941.293945,516 C940.418945,516 939.831055,515.5625 939.831055,514.981445 C939.831055,514.571289 940.15918,514.25 940.5625,514.25 C941.143555,514.25 941.164062,514.831055 941.581055,514.831055 C941.90918,514.831055 942.168945,514.571289 942.168945,514.25 C942.168945,513.682617 941.888672,513.388672 941.615234,513.115234 C941.779297,512.807617 942.148438,512.000977 942.168945,510.832031 C942.168945,510.688477 942.066406,510.558594 941.922852,510.538086 C941.615234,510.490234 941.307617,510.456055 941,510.456055 C938.539062,510.538086 936.918945,511.707031 936.918945,513.668945 C936.918945,515.418945 938.375,516.875 940.125,516.875 L940.172852,516.875 C940.138672,517.018555 940.125,517.168945 940.125,517.3125 C940.125,518.201172 940.740234,518.966797 941.581055,519.158203 L941.581055,521.25 C941.581055,521.414062 941.710938,521.543945 941.875,521.543945 Z" id="icon_location"></path>
        </g>
    </g>
</svg>