<?xml version="1.0" encoding="UTF-8"?>
<svg width="20px" height="20px" viewBox="0 0 20 20" version="1.1" xmlns="http://www.w3.org/2000/svg" xmlns:xlink="http://www.w3.org/1999/xlink">
    <!-- Generator: Sketch 50.2 (55047) - http://www.bohemiancoding.com/sketch -->
    <title>icon-about</title>
    <desc>Created with Sketch.</desc>
    <defs></defs>
    <g id="Toolkit-Handoff" stroke="none" stroke-width="1" fill="none" fill-rule="evenodd" opacity="0.300000012">
        <g id="Home-desktop" transform="translate(-571.000000, -28.000000)" fill="#000000">
            <g id="Group-5" transform="translate(0.000000, -4.000000)">
                <path d="M573.916667,34.9398148 C575.876553,32.9799285 578.237641,32 581,32 C583.762359,32 586.119589,32.9760705 588.071759,34.9282407 C590.02393,36.880411 591,39.2376405 591,42 C591,44.7623595 590.02393,47.119589 588.071759,49.0717593 C586.119589,51.0239295 583.762359,52 581,52 C578.237641,52 575.880411,51.0239295 573.928241,49.0717593 C571.97607,47.119589 571,44.7623595 571,42 C571,39.2376405 571.972212,36.884269 573.916667,34.9398148 Z M582.25,48.25 L582.25,41.1666667 L579.75,41.1666667 L579.75,48.25 L582.25,48.25 Z M579.819444,38.5972222 C580.14352,38.9212979 580.537035,39.0833333 581,39.0833333 C581.462965,39.0833333 581.85648,38.9212979 582.180556,38.5972222 C582.504631,38.2731465 582.666667,37.8796319 582.666667,37.4166667 C582.666667,36.9537014 582.504631,36.5601868 582.180556,36.2361111 C581.85648,35.9120354 581.462965,35.75 581,35.75 C580.537035,35.75 580.14352,35.9120354 579.819444,36.2361111 C579.495369,36.5601868 579.333333,36.9537014 579.333333,37.4166667 C579.333333,37.8796319 579.495369,38.2731465 579.819444,38.5972222 Z" id="icon-about"></path>
            </g>
        </g>
    </g>
</svg>