<?xml version="1.0" encoding="UTF-8"?>
<svg width="20px" height="20px" viewBox="0 0 20 20" version="1.1" xmlns="http://www.w3.org/2000/svg" xmlns:xlink="http://www.w3.org/1999/xlink">
    <!-- Generator: Sketch 50.2 (55047) - http://www.bohemiancoding.com/sketch -->
    <title>icon-close</title>
    <desc>Created with Sketch.</desc>
    <defs></defs>
    <g id="Toolkit-Handoff" stroke="none" stroke-width="1" fill="none" fill-rule="evenodd">
        <g id="Home-movile" transform="translate(-310.000000, -107.000000)" fill="#B18C2F">
            <g id="Group" transform="translate(20.000000, 77.000000)">
                <g id="Bitmap">
                    <path d="M309.174805,45.2753906 L303.545898,39.6464844 L309.174805,34.0175781 C309.25,33.9208984 309.292969,33.8134766 309.292969,33.6845703 C309.292969,33.5556641 309.25,33.4589844 309.174805,33.3623047 L305.930664,30.1181641 C305.833984,30.0429688 305.737305,30 305.608398,30 C305.479492,30 305.37207,30.0429688 305.275391,30.1181641 L299.646484,35.7470703 L294.017578,30.1181641 C293.920898,30.0429688 293.813477,30 293.68457,30 C293.555664,30 293.458984,30.0429688 293.362305,30.1181641 L290.118164,33.3623047 C290.042969,33.4589844 290,33.5556641 290,33.6845703 C290,33.8134766 290.042969,33.9208984 290.118164,34.0175781 L295.74707,39.6464844 L290.118164,45.2753906 C290.042969,45.3720703 290,45.4794922 290,45.6083984 C290,45.7373047 290.042969,45.8339844 290.118164,45.9306641 L293.362305,49.1748047 C293.458984,49.25 293.555664,49.2929688 293.68457,49.2929688 C293.813477,49.2929688 293.920898,49.25 294.017578,49.1748047 L299.646484,43.5458984 L305.275391,49.1748047 C305.37207,49.25 305.479492,49.2929688 305.608398,49.2929688 C305.737305,49.2929688 305.833984,49.25 305.930664,49.1748047 L309.174805,45.9306641 C309.25,45.8339844 309.292969,45.7373047 309.292969,45.6083984 C309.292969,45.4794922 309.25,45.3720703 309.174805,45.2753906 L309.174805,45.2753906 Z" id="icon-close"></path>
                </g>
            </g>
        </g>
    </g>
</svg>