<?xml version="1.0" encoding="UTF-8"?>
<svg width="20px" height="18px" viewBox="0 0 20 18" version="1.1" xmlns="http://www.w3.org/2000/svg" xmlns:xlink="http://www.w3.org/1999/xlink">
    <!-- Generator: Sketch 50.2 (55047) - http://www.bohemiancoding.com/sketch -->
    <title>icon-stories</title>
    <desc>Created with Sketch.</desc>
    <defs></defs>
    <g id="Toolkit-Handoff" stroke="none" stroke-width="1" fill="none" fill-rule="evenodd" opacity="0.300000012">
        <g id="Home-desktop" transform="translate(-762.000000, -29.000000)" fill="#000000">
            <g id="Group-5" transform="translate(0.000000, -4.000000)">
                <path d="M778.25,43.25 L780.75,43.25 C781.089508,43.25 781.382715,43.3734556 781.62963,43.6203704 C781.876544,43.8672852 782,44.1604921 782,44.5 L782,49.5 C782,49.8395079 781.876544,50.1327148 781.62963,50.3796296 C781.382715,50.6265444 781.089508,50.75 780.75,50.75 L774.5,50.75 C774.160492,50.75 773.867285,50.6265444 773.62037,50.3796296 C773.373456,50.1327148 773.25,49.8395079 773.25,49.5 L773.25,43.25 C773.25,40.3178866 774.017739,37.9182192 775.553241,36.0509259 C777.088742,34.1836326 779.098753,33.25 781.583333,33.25 C781.706791,33.25 781.807098,33.2885799 781.884259,33.3657407 C781.96142,33.4429016 782,33.5432093 782,33.6666667 L782,37.4398148 C782,37.6867296 781.876544,37.8256171 781.62963,37.8564815 C780.549377,37.9336424 779.716052,38.4351806 779.12963,39.3611111 C778.543207,40.2870417 778.25,41.583325 778.25,43.25 Z M767,43.25 L769.5,43.25 C769.839508,43.25 770.132715,43.3734556 770.37963,43.6203704 C770.626544,43.8672852 770.75,44.1604921 770.75,44.5 L770.75,49.5 C770.75,49.8395079 770.626544,50.1327148 770.37963,50.3796296 C770.132715,50.6265444 769.839508,50.75 769.5,50.75 L763.25,50.75 C762.910492,50.75 762.617285,50.6265444 762.37037,50.3796296 C762.123456,50.1327148 762,49.8395079 762,49.5 L762,43.25 C762,40.3178866 762.767739,37.9182192 764.303241,36.0509259 C765.838742,34.1836326 767.848753,33.25 770.333333,33.25 C770.456791,33.25 770.557098,33.2885799 770.634259,33.3657407 C770.71142,33.4429016 770.75,33.5432093 770.75,33.6666667 L770.75,37.4398148 C770.75,37.6867296 770.626544,37.8256171 770.37963,37.8564815 C769.299377,37.9336424 768.466052,38.4351806 767.87963,39.3611111 C767.293207,40.2870417 767,41.583325 767,43.25 Z" id="icon-stories"></path>
            </g>
        </g>
    </g>
</svg>