<?xml version="1.0" encoding="UTF-8"?>
<svg width="20px" height="20px" viewBox="0 0 20 20" version="1.1" xmlns="http://www.w3.org/2000/svg" xmlns:xlink="http://www.w3.org/1999/xlink">
    <!-- Generator: Sketch 50.2 (55047) - http://www.bohemiancoding.com/sketch -->
    <title>icon-data</title>
    <desc>Created with Sketch.</desc>
    <defs></defs>
    <g id="Toolkit-Handoff" stroke="none" stroke-width="1" fill="none" fill-rule="evenodd" opacity="0.300000012">
        <g id="Home-desktop" transform="translate(-931.000000, -28.000000)" fill="#000000">
            <g id="Group-5" transform="translate(0.000000, -4.000000)">
                <path d="M938.916667,32 L943.083333,32 C943.206791,32 943.307098,32.0385799 943.384259,32.1157407 C943.46142,32.1929016 943.5,32.2932093 943.5,32.4166667 L943.5,51.5833333 C943.5,51.7067907 943.46142,51.8070984 943.384259,51.8842593 C943.307098,51.9614201 943.206791,52 943.083333,52 L938.916667,52 C938.793209,52 938.692902,51.9614201 938.615741,51.8842593 C938.53858,51.8070984 938.5,51.7067907 938.5,51.5833333 L938.5,32.4166667 C938.5,32.2932093 938.53858,32.1929016 938.615741,32.1157407 C938.692902,32.0385799 938.793209,32 938.916667,32 Z M931.416667,42 L935.583333,42 C935.706791,42 935.807098,42.0385799 935.884259,42.1157407 C935.96142,42.1929016 936,42.2932093 936,42.4166667 L936,51.5833333 C936,51.7067907 935.96142,51.8070984 935.884259,51.8842593 C935.807098,51.9614201 935.706791,52 935.583333,52 L931.416667,52 C931.293209,52 931.192902,51.9614201 931.115741,51.8842593 C931.03858,51.8070984 931,51.7067907 931,51.5833333 L931,42.4166667 C931,42.2932093 931.03858,42.1929016 931.115741,42.1157407 C931.192902,42.0385799 931.293209,42 931.416667,42 Z M946.416667,37 L950.583333,37 C950.706791,37 950.807098,37.0385799 950.884259,37.1157407 C950.96142,37.1929016 951,37.2932093 951,37.4166667 L951,51.5833333 C951,51.7067907 950.96142,51.8070984 950.884259,51.8842593 C950.807098,51.9614201 950.706791,52 950.583333,52 L946.416667,52 C946.293209,52 946.192902,51.9614201 946.115741,51.8842593 C946.03858,51.8070984 946,51.7067907 946,51.5833333 L946,37.4166667 C946,37.2932093 946.03858,37.1929016 946.115741,37.1157407 C946.192902,37.0385799 946.293209,37 946.416667,37 Z" id="icon-data"></path>
            </g>
        </g>
    </g>
</svg>