<?xml version="1.0" encoding="UTF-8"?>
<svg width="20px" height="20px" viewBox="0 0 20 20" version="1.1" xmlns="http://www.w3.org/2000/svg" xmlns:xlink="http://www.w3.org/1999/xlink">
    <!-- Generator: Sketch 50.2 (55047) - http://www.bohemiancoding.com/sketch -->
    <title>icon-resources</title>
    <desc>Created with Sketch.</desc>
    <defs></defs>
    <g id="Toolkit-Handoff" stroke="none" stroke-width="1" fill="none" fill-rule="evenodd" opacity="0.300000012">
        <g id="Home-desktop" transform="translate(-1101.000000, -28.000000)" fill="#000000">
            <g id="Group-5" transform="translate(0.000000, -4.000000)">
                <path d="M1103.13867,32 L1121,32 L1121,48.6113281 C1121,50.4570312 1119.4375,52 1117.61133,52 L1104.38867,52 C1102.54297,52 1101,50.4570312 1101,48.6113281 L1101,34.1386719 L1102.42578,34.1386719 L1102.42578,48.6113281 C1102.42578,48.8066406 1102.58203,48.9628906 1102.78711,48.9628906 C1102.98242,48.9628906 1103.13867,48.8066406 1103.13867,48.6113281 L1103.13867,32 Z M1104.57422,34.8613281 L1104.57422,35.5742188 L1108.86133,35.5742188 L1108.86133,34.8613281 L1104.57422,34.8613281 Z M1104.57422,37 L1104.57422,37.7128906 L1108.86133,37.7128906 L1108.86133,37 L1104.57422,37 Z M1104.57422,39.1386719 L1104.57422,39.8613281 L1108.86133,39.8613281 L1108.86133,39.1386719 L1104.57422,39.1386719 Z M1119.57422,48.4257812 L1119.57422,47.7128906 L1104.57422,47.7128906 L1104.57422,48.4257812 L1119.57422,48.4257812 Z M1119.57422,46.2871094 L1119.57422,45.5742188 L1104.57422,45.5742188 L1104.57422,46.2871094 L1119.57422,46.2871094 Z M1119.57422,44.1386719 L1119.57422,43.4257812 L1104.57422,43.4257812 L1104.57422,44.1386719 L1119.57422,44.1386719 Z M1119.57422,42 L1119.57422,41.2871094 L1104.57422,41.2871094 L1104.57422,42 L1119.57422,42 Z M1119.57422,39.8613281 L1119.57422,34.8613281 L1110.28711,34.8613281 L1110.28711,39.8613281 L1119.57422,39.8613281 Z" id="icon-resources"></path>
            </g>
        </g>
    </g>
</svg>