<?xml version="1.0" encoding="UTF-8"?>
<svg width="21px" height="20px" viewBox="0 0 21 20" version="1.1" xmlns="http://www.w3.org/2000/svg" xmlns:xlink="http://www.w3.org/1999/xlink">
    <!-- Generator: Sketch 50.2 (55047) - http://www.bohemiancoding.com/sketch -->
    <title>icon-toolkit</title>
    <desc>Created with Sketch.</desc>
    <defs></defs>
    <g id="Toolkit-Handoff" stroke="none" stroke-width="1" fill="none" fill-rule="evenodd" opacity="0.300000012">
        <g id="Home-desktop" transform="translate(-656.000000, -28.000000)" fill="#000000">
            <g id="Group-5" transform="translate(0.000000, -4.000000)">
                <path d="M670.836496,42.9082031 C670.182199,42.9082031 669.518136,42.7910156 668.893136,42.5566406 L660.104074,51.3457031 C659.664621,51.7851562 659.098215,52 658.522043,52 C657.945871,52 657.379465,51.7851562 656.940011,51.3457031 C656.500558,50.90625 656.285715,50.3398438 656.285715,49.7636719 C656.285715,49.1875 656.500558,48.6210938 656.940011,48.1816406 L665.729074,39.3925781 C664.996652,37.4394531 665.406808,35.1640625 666.969308,33.5917969 C668.033761,32.5273438 669.430246,32 670.82673,32 C671.481027,32 672.14509,32.1171875 672.77009,32.3515625 L669.342355,35.7792969 L669.674386,38.6113281 L672.506418,38.9433594 L675.934152,35.515625 C676.666574,37.46875 676.256418,39.7441406 674.693918,41.3164062 C673.629465,42.3808594 672.23298,42.9082031 670.836496,42.9082031 Z M673.385324,45.7695312 L676.285715,49.5292969 L673.805246,52 L670.055246,49.0996094 L668.893136,46.0722656 L667.887277,45.0761719 L669.195871,43.7675781 C669.33259,43.8066406 669.469308,43.8261719 669.606027,43.8457031 L670.35798,44.6074219 L673.385324,45.7695312 Z M661.13923,40.7207031 L657.086496,36.6679688 C656.549386,36.1308594 656.285715,35.4277344 656.285715,34.734375 C656.285715,34.03125 656.549386,33.3378906 657.086496,32.8007812 C658.150949,31.7363281 659.879465,31.7363281 660.953683,32.8007812 L664.430246,36.2773438 C664.254465,37.1953125 664.273996,38.1621094 664.518136,39.0898438 L662.14509,41.4628906 C661.656808,41.1210938 661.227121,40.8085938 661.13923,40.7207031 Z" id="icon-toolkit"></path>
            </g>
        </g>
    </g>
</svg>