<?xml version="1.0" encoding="UTF-8"?>
<svg width="18px" height="16px" viewBox="0 0 18 16" version="1.1" xmlns="http://www.w3.org/2000/svg" xmlns:xlink="http://www.w3.org/1999/xlink">
    <!-- Generator: Sketch 47.1 (45422) - http://www.bohemiancoding.com/sketch -->
    <title>icon_field of work</title>
    <desc>Created with Sketch.</desc>
    <defs></defs>
    <g id="Bhub-3.0-v2" stroke="none" stroke-width="1" fill="none" fill-rule="evenodd">
        <g id="search-editing" transform="translate(-61.000000, -536.000000)" fill="#C9C9C9">
            <path d="M77.875,539.375 C78.4990234,539.375 79,539.875977 79,540.5 L79,550.625 C79,551.249023 78.4990234,551.75 77.875,551.75 L62.125,551.75 C61.5009766,551.75 61,551.249023 61,550.625 L61,540.5 C61,539.875977 61.5009766,539.375 62.125,539.375 L66.625,539.375 L66.625,537.50293 C66.625,536.94043 66.9150391,536.544922 67.5214844,536.316406 C68.0400391,536.105469 68.8310547,536 70,536 C71.1689453,536 71.9599609,536.105469 72.4785156,536.316406 C73.0849609,536.544922 73.375,536.94043 73.375,537.50293 L73.375,539.375 L77.875,539.375 Z M68.4970703,537.87207 L68.4970703,539.375 L71.5029297,539.375 L71.5029297,537.87207 L68.4970703,537.87207 Z" id="icon_field-of-work"></path>
        </g>
    </g>
</svg>