<?xml version="1.0" encoding="UTF-8"?>
<svg width="19px" height="19px" viewBox="0 0 19 19" version="1.1" xmlns="http://www.w3.org/2000/svg" xmlns:xlink="http://www.w3.org/1999/xlink">
    <!-- Generator: Sketch 47.1 (45422) - http://www.bohemiancoding.com/sketch -->
    <title>icon_clear</title>
    <desc>Created with Sketch.</desc>
    <defs></defs>
    <g id="Bhub-3.0-v2" stroke="none" stroke-width="1" fill="none" fill-rule="evenodd">
        <g id="domain-selected" transform="translate(-62.000000, -1152.000000)" fill="#FFFFFF">
            <path d="M81,1152.41499 C81,1152.25043 80.9128884,1152.08588 80.7483444,1152.01812 C80.5838003,1151.9794 80.3998981,1151.99876 80.2934284,1152.11492 L77.2154865,1155.21242 C75.589404,1153.72175 73.4503311,1152.82154 71.0886398,1152.82154 C66.0845644,1152.82154 62,1156.90637 62,1161.91077 C62,1166.91517 66.0845644,1171 71.0886398,1171 C73.430973,1171 75.589404,1170.09979 77.1961284,1168.63815 C77.2154865,1168.63815 77.2154865,1168.60912 77.2154865,1168.60912 C77.2832399,1168.54136 77.3316353,1168.45424 77.3316353,1168.33808 C77.3316353,1168.22193 77.3025981,1168.12513 77.2154865,1168.05737 L77.2154865,1168.03801 L75.444218,1166.26663 C75.3087112,1166.13111 75.0570555,1166.11176 74.8925115,1166.26663 C73.8665308,1167.1378 72.5308202,1167.68954 71.0886398,1167.68954 C67.9042282,1167.68954 65.3102394,1165.09539 65.3102394,1161.91077 C65.3102394,1158.72615 67.9042282,1156.13199 71.0886398,1156.13199 C72.5308202,1156.13199 73.8665308,1156.65469 74.8731533,1157.55491 L72.4437086,1159.96515 C72.3275599,1160.07163 72.3082017,1160.25554 72.346918,1160.4201 C72.4146714,1160.58465 72.5792155,1160.67177 72.7437596,1160.67177 L80.5838003,1160.67177 C80.8160978,1160.67177 81,1160.48785 81,1160.25554 L81,1152.41499 Z" id="icon_clear"></path>
        </g>
    </g>
</svg>