<?xml version="1.0" encoding="UTF-8"?>
<svg width="18px" height="18px" viewBox="0 0 18 18" version="1.1" xmlns="http://www.w3.org/2000/svg" xmlns:xlink="http://www.w3.org/1999/xlink">
    <!-- Generator: Sketch 47.1 (45422) - http://www.bohemiancoding.com/sketch -->
    <title>icon_topics</title>
    <desc>Created with Sketch.</desc>
    <defs></defs>
    <g id="Bhub-3.0-v2" stroke="none" stroke-width="1" fill="none" fill-rule="evenodd">
        <g id="search-editing" transform="translate(-61.000000, -675.000000)" fill="#C9C9C9">
            <path d="M61.3339844,686.399414 C60.8945312,685.959961 60.8945312,685.230469 61.3339844,684.791016 L71.0195312,675.105469 C71.0810547,675.043945 71.1865234,675 71.2744141,675 L77.875,675 C78.4990234,675 79,675.500977 79,676.125 L79,682.725586 C79,682.813477 78.9560547,682.918945 78.8945312,682.980469 L69.2089844,692.666016 C68.7695312,693.105469 68.0400391,693.105469 67.6005859,692.666016 L61.3339844,686.399414 Z M73.375,678.9375 C73.375,679.87793 74.1220703,680.625 75.0625,680.625 C76.0029297,680.625 76.75,679.87793 76.75,678.9375 C76.75,677.99707 76.0029297,677.25 75.0625,677.25 C74.1220703,677.25 73.375,677.99707 73.375,678.9375 Z" id="icon_topics"></path>
        </g>
    </g>
</svg>