<?xml version="1.0" encoding="UTF-8"?>
<svg width="18px" height="18px" viewBox="0 0 18 18" version="1.1" xmlns="http://www.w3.org/2000/svg" xmlns:xlink="http://www.w3.org/1999/xlink">
    <!-- Generator: Sketch 47.1 (45422) - http://www.bohemiancoding.com/sketch -->
    <title>icon_location</title>
    <desc>Created with Sketch.</desc>
    <defs></defs>
    <g id="Bhub-3.0-v2" stroke="none" stroke-width="1" fill="none" fill-rule="evenodd">
        <g id="search-editing" transform="translate(-61.000000, -607.000000)" fill="#C9C9C9">
            <path d="M70,607 C74.9833984,607 79,611.016602 79,616 C79,620.983398 74.9833984,625 70,625 C65.0166016,625 61,620.983398 61,616 C61,611.016602 65.0166016,607 70,607 Z M71.125,623.12793 C72.25,623.12793 74.5,621.24707 74.5,618.62793 C74.5,617.168945 73.3310547,616 71.8720703,616 L70.3779297,616 C69.2529297,616 68.4970703,615.4375 68.4970703,614.69043 C68.4970703,614.163086 68.9189453,613.75 69.4375,613.75 C70.1845703,613.75 70.2109375,614.49707 70.7470703,614.49707 C71.1689453,614.49707 71.5029297,614.163086 71.5029297,613.75 C71.5029297,613.020508 71.1425781,612.642578 70.7910156,612.291016 C71.0019531,611.895508 71.4765625,610.858398 71.5029297,609.355469 C71.5029297,609.170898 71.3710938,609.003906 71.1865234,608.977539 C70.7910156,608.916016 70.3955078,608.87207 70,608.87207 C66.8359375,608.977539 64.7529297,610.480469 64.7529297,613.00293 C64.7529297,615.25293 66.625,617.125 68.875,617.125 L68.9365234,617.125 C68.8925781,617.30957 68.875,617.50293 68.875,617.6875 C68.875,618.830078 69.6660156,619.814453 70.7470703,620.060547 L70.7470703,622.75 C70.7470703,622.960938 70.9140625,623.12793 71.125,623.12793 Z" id="icon_location"></path>
        </g>
    </g>
</svg>