<?xml version="1.0" encoding="UTF-8"?>
<svg width="15px" height="15px" viewBox="0 0 15 15" version="1.1" xmlns="http://www.w3.org/2000/svg" xmlns:xlink="http://www.w3.org/1999/xlink">
    <!-- Generator: Sketch 47.1 (45422) - http://www.bohemiancoding.com/sketch -->
    <title>icon_featured</title>
    <desc>Created with Sketch.</desc>
    <defs></defs>
    <g id="Bhub-3.0-v2" stroke="none" stroke-width="1" fill="none" fill-rule="evenodd">
        <g id="project-tab-landing" transform="translate(-756.000000, -748.000000)" fill="#E8A800">
            <g id="Group" transform="translate(419.000000, 737.000000)">
                <g id="Innovation-Copy-2">
                    <path d="M351.769956,17.2497412 C351.851998,17.1745365 351.865671,17.0446375 351.838324,16.928412 C351.790466,16.8121866 351.674241,16.7506555 351.558015,16.7506555 L347.086754,16.7506555 L345.124595,11.6914301 C345.076738,11.5820415 344.967349,11.5 344.851124,11.5 C344.734898,11.5 344.625509,11.5820415 344.577652,11.6914301 L342.615493,16.7506555 L338.144232,16.7506555 C338.028006,16.7506555 337.911781,16.8121866 337.863923,16.928412 C337.836576,17.0446375 337.85025,17.1745365 337.932291,17.2497412 L341.337013,20.6407895 L340.475577,25.1599084 C340.461904,25.2761338 340.509761,25.3855225 340.605476,25.4538904 C340.701191,25.5154215 340.83109,25.5154215 340.926806,25.4538904 L344.851124,22.9242777 L348.775442,25.4538904 C348.823299,25.4880744 348.88483,25.5017479 348.932688,25.5017479 C348.980545,25.5017479 349.048913,25.4880744 349.096771,25.4538904 C349.192486,25.3855225 349.240343,25.2761338 349.22667,25.1599084 L348.365234,20.6407895 L351.769956,17.2497412 Z" id="icon_featured"></path>
                </g>
            </g>
        </g>
    </g>
</svg>