<?xml version="1.0" encoding="UTF-8"?>
<svg width="21px" height="20px" viewBox="0 0 21 20" version="1.1" xmlns="http://www.w3.org/2000/svg" xmlns:xlink="http://www.w3.org/1999/xlink">
    <!-- Generator: Sketch 50.2 (55047) - http://www.bohemiancoding.com/sketch -->
    <title>icon_search</title>
    <desc>Created with Sketch.</desc>
    <defs></defs>
    <g id="Designs-KC-Round2" stroke="none" stroke-width="1" fill="none" fill-rule="evenodd">
        <g id="Navigation" transform="translate(-1389.000000, -574.000000)" fill="#FFFFFF">
            <g id="Nav-Dropdown-Copy" transform="translate(147.000000, 559.000000)">
                <g id="Header-Copy">
                    <g id="Group-5" transform="translate(1222.000000, 0.000000)">
                        <g id="Group-8">
                            <path d="M27.3615741,17.1990741 C28.8276308,15.7330174 30.5945884,15 32.6625,15 C34.7304116,15 36.4973692,15.7330174 37.9634259,17.1990741 C39.4294826,18.6651308 40.1625,20.4320884 40.1625,22.5 C40.1625,24.5679116 39.4294826,26.3348692 37.9634259,27.8009259 C36.4973692,29.2669826 34.7304116,30 32.6625,30 C31.1964433,30 29.8615801,29.6142014 28.6578704,28.8425926 L23.0097222,34.5138889 C22.6856465,34.8379646 22.2921319,35 21.8291667,35 C21.3662014,35 20.9726868,34.8379646 20.6486111,34.5138889 C20.3245354,34.1898132 20.1625,33.7962986 20.1625,33.3333333 C20.1625,32.8703681 20.3245354,32.4768535 20.6486111,32.1527778 L26.3199074,26.5046296 C25.5482986,25.3009199 25.1625,23.9660567 25.1625,22.5 C25.1625,20.4320884 25.8955174,18.6651308 27.3615741,17.1990741 Z M29.1208333,26.0416667 C30.1084926,27.0138938 31.2890363,27.5 32.6625,27.5 C34.0359637,27.5 35.2126494,27.0100358 36.1925926,26.0300926 C37.1725358,25.0501494 37.6625,23.8734637 37.6625,22.5 C37.6625,21.1265363 37.1725358,19.9498506 36.1925926,18.9699074 C35.2126494,17.9899642 34.0359637,17.5 32.6625,17.5 C31.2890363,17.5 30.1123506,17.9899642 29.1324074,18.9699074 C28.1524642,19.9498506 27.6625,21.1265363 27.6625,22.5 C27.6625,23.8734637 28.1486063,25.0540074 29.1208333,26.0416667 Z" id="icon_search"></path>
                        </g>
                    </g>
                </g>
            </g>
        </g>
    </g>
</svg>