<?xml version="1.0" encoding="UTF-8"?>
<svg width="20px" height="20px" viewBox="0 0 20 20" version="1.1" xmlns="http://www.w3.org/2000/svg" xmlns:xlink="http://www.w3.org/1999/xlink">
    <!-- Generator: Sketch 50.2 (55047) - http://www.bohemiancoding.com/sketch -->
    <title>icon_findcare</title>
    <desc>Created with Sketch.</desc>
    <defs></defs>
    <g id="Designs-KC-Round2" stroke="none" stroke-width="1" fill="none" fill-rule="evenodd">
        <g id="Navigation" transform="translate(-929.000000, -575.000000)" fill="#87223C">
            <g id="Nav-Dropdown-Copy" transform="translate(147.000000, 559.000000)">
                <g id="Header-Copy">
                    <g id="Group-6" transform="translate(712.000000, 0.000000)">
                        <path d="M89.7626843,32.9921875 C90.0849499,33.6367188 90.0654187,34.3984375 89.6943249,35.0039062 C89.3036999,35.6289062 88.6298718,36 87.9169812,36 L72.0771374,36 C71.3642468,36 70.6904187,35.6289062 70.2997937,35.0039062 C69.9286999,34.3984375 69.9091687,33.6367188 70.2021374,32.9921875 L78.1220593,17.1621094 C78.4931531,16.4394531 79.2060437,16 79.9970593,16 C80.7880749,16 81.5009656,16.4394531 81.8525281,17.1621094 L89.7626843,32.9921875 Z M78.7470593,21.4199219 L78.7470593,28.5 L81.2470593,28.5 L81.2470593,21.4199219 L78.7470593,21.4199219 Z M79.9970593,33.9199219 C80.9247937,33.9199219 81.6669812,33.1777344 81.6669812,32.25 C81.6669812,31.3222656 80.9247937,30.5800781 79.9970593,30.5800781 C79.0693249,30.5800781 78.3271374,31.3222656 78.3271374,32.25 C78.3271374,33.1777344 79.0693249,33.9199219 79.9970593,33.9199219 Z" id="icon_findcare"></path>
                    </g>
                </g>
            </g>
        </g>
    </g>
</svg>