<?xml version="1.0" encoding="UTF-8"?>
<svg width="20px" height="20px" viewBox="0 0 20 20" version="1.1" xmlns="http://www.w3.org/2000/svg" xmlns:xlink="http://www.w3.org/1999/xlink">
    <!-- Generator: Sketch 50.2 (55047) - http://www.bohemiancoding.com/sketch -->
    <title>icon_patientportal</title>
    <desc>Created with Sketch.</desc>
    <defs></defs>
    <g id="Designs-KC-Round2" stroke="none" stroke-width="1" fill="none" fill-rule="evenodd">
        <g id="Navigation" transform="translate(-1162.000000, -574.000000)" fill="#2B9FAC">
            <g id="Nav-Dropdown-Copy" transform="translate(147.000000, 559.000000)">
                <g id="Header-Copy">
                    <g id="Group-4" transform="translate(967.000000, 0.000000)">
                        <g id="Group-7">
                            <path d="M58,15 C63.5175781,15 68,19.4824219 68,25 C68,30.5175781 63.5175781,35 58,35 C52.4824219,35 48,30.5175781 48,25 C48,19.4824219 52.4824219,15 58,15 Z M63.7128906,27.1386719 L63.7128906,22.8613281 L60.1386719,22.8613281 L60.1386719,19.2871094 L55.8613281,19.2871094 L55.8613281,22.8613281 L52.2871094,22.8613281 L52.2871094,27.1386719 L55.8613281,27.1386719 L55.8613281,30.7128906 L60.1386719,30.7128906 L60.1386719,27.1386719 L63.7128906,27.1386719 Z" id="icon_patientportal"></path>
                        </g>
                    </g>
                </g>
            </g>
        </g>
    </g>
</svg>