<?xml version="1.0" encoding="UTF-8"?>
<svg width="29px" height="29px" viewBox="0 0 29 29" version="1.1" xmlns="http://www.w3.org/2000/svg" xmlns:xlink="http://www.w3.org/1999/xlink">
    <!-- Generator: Sketch 48.1 (47250) - http://www.bohemiancoding.com/sketch -->
    <title>icon_facebook</title>
    <desc>Created with Sketch.</desc>
    <defs></defs>
    <g id="Project---Updated-Colors" stroke="none" stroke-width="1" fill="none" fill-rule="evenodd" transform="translate(-20.000000, -461.000000)">
        <path d="M34.500038,460.999924 C42.4884849,460.999924 49.0000761,467.511515 49.0000761,475.499962 C49.0000761,483.521974 42.4884849,490 34.500038,490 C26.4780262,490 20,483.521974 20,475.499962 C20,467.511515 26.4780262,460.999924 34.500038,460.999924 Z M35.7083745,473.116854 L35.7083745,470.498791 C35.7083745,469.491844 35.9097639,468.854111 37.1852303,468.854111 L39.1655595,468.854111 L39.333384,465.430491 C39.333384,465.430491 38.326437,465.229102 36.581062,465.229102 C33.0231823,465.229102 31.4791968,467.377255 31.4791968,469.793928 L31.4791968,473.083289 L29.0625238,473.083289 L29.0625238,476.708298 L31.4791968,476.708298 L31.4791968,485.770822 L35.7083745,485.770822 L35.7083745,476.708298 L39.0984297,476.708298 L39.333384,473.116854 L35.7083745,473.116854 Z" id="icon_facebook" fill="#FFFFFF"></path>
    </g>
</svg>