<?xml version="1.0" encoding="UTF-8"?>
<svg width="29px" height="29px" viewBox="0 0 29 29" version="1.1" xmlns="http://www.w3.org/2000/svg" xmlns:xlink="http://www.w3.org/1999/xlink">
    <!-- Generator: Sketch 48.1 (47250) - http://www.bohemiancoding.com/sketch -->
    <title>icon_twitter</title>
    <desc>Created with Sketch.</desc>
    <defs></defs>
    <g id="Project---Updated-Colors" stroke="none" stroke-width="1" fill="none" fill-rule="evenodd" transform="translate(-69.000000, -461.000000)">
        <path d="M82.500038,460.999924 C90.5220498,460.999924 98.0000761,467.47795 98.0000761,475.499962 C98.0000761,483.521974 91.5220498,490 83.500038,490 C75.4780262,490 69,483.521974 69,475.499962 C69,467.47795 74.4780262,460.999924 82.500038,460.999924 Z M92.3276075,472.311296 C93.1331651,471.740693 93.8044632,471.002265 94.3750665,470.196707 C93.6366387,470.498791 92.831081,470.733746 91.9919584,470.83444 C92.8646459,470.330967 93.4688142,469.525409 93.7708983,468.552027 C92.9653406,469.021936 92.1262181,469.357585 91.1864008,469.558974 C90.4479729,468.753417 89.373896,468.249943 88.1991244,468.249943 C85.916711,468.249943 84.1042063,470.096013 84.1042063,472.378426 C84.1042063,472.68051 84.1377712,473.016159 84.204901,473.318243 C80.7812809,473.150419 77.7268747,471.505739 75.6794157,468.988371 C75.3437666,469.626104 75.1423772,470.330967 75.1423772,471.069395 C75.1423772,472.512686 75.8472402,473.754587 76.954882,474.493015 C76.2835839,474.493015 75.6458508,474.291625 75.1088123,473.989541 C75.1088123,476.037 76.5185382,477.681681 78.3981728,478.084459 C78.0625238,478.185154 77.6933098,478.218719 77.3240959,478.218719 C77.0555767,478.218719 76.7870575,478.185154 76.5521031,478.151589 C77.0555767,479.79627 78.5995622,480.903911 80.3785021,480.937476 C78.9687761,482.045118 77.2234012,482.817111 75.2766368,482.817111 C74.9409878,482.817111 74.6053388,482.783546 74.3032546,482.749981 C76.1157594,483.924753 78.2974781,484.562486 80.6134564,484.562486 C88.1991244,484.562486 92.3276075,478.285849 92.3276075,472.848335 L92.3276075,472.311296 Z" id="icon_twitter" fill="#FFFFFF"></path>
    </g>
</svg>