<?xml version="1.0" encoding="UTF-8"?>
<svg width="14px" height="13px" viewBox="0 0 14 13" version="1.1" xmlns="http://www.w3.org/2000/svg" xmlns:xlink="http://www.w3.org/1999/xlink">
    <!-- Generator: Sketch 48.1 (47250) - http://www.bohemiancoding.com/sketch -->
    <title>icon_field of work</title>
    <desc>Created with Sketch.</desc>
    <defs></defs>
    <g id="Project---Updated-Colors" stroke="none" stroke-width="1" fill="none" fill-rule="evenodd" transform="translate(-934.000000, -474.000000)">
        <path d="M947.125,476.625 C947.610352,476.625 948,477.014648 948,477.5 L948,485.375 C948,485.860352 947.610352,486.25 947.125,486.25 L934.875,486.25 C934.389648,486.25 934,485.860352 934,485.375 L934,477.5 C934,477.014648 934.389648,476.625 934.875,476.625 L938.375,476.625 L938.375,475.168945 C938.375,474.731445 938.600586,474.423828 939.072266,474.246094 C939.475586,474.082031 940.09082,474 941,474 C941.90918,474 942.524414,474.082031 942.927734,474.246094 C943.399414,474.423828 943.625,474.731445 943.625,475.168945 L943.625,476.625 L947.125,476.625 Z M939.831055,475.456055 L939.831055,476.625 L942.168945,476.625 L942.168945,475.456055 L939.831055,475.456055 Z" id="icon_field-of-work" fill="#474D57"></path>
    </g>
</svg>