<?xml version="1.0" encoding="UTF-8"?>
<svg width="18px" height="18px" viewBox="0 0 18 18" version="1.1" xmlns="http://www.w3.org/2000/svg" xmlns:xlink="http://www.w3.org/1999/xlink">
    <!-- Generator: Sketch 47.1 (45422) - http://www.bohemiancoding.com/sketch -->
    <title>icon_topics</title>
    <desc>Created with Sketch.</desc>
    <defs></defs>
    <g id="Bhub-3.0-v2" stroke="none" stroke-width="1" fill="none" fill-rule="evenodd">
        <g id="Mobile-Filters---Domain-selected" transform="translate(-26.000000, -573.000000)" fill="#C9C9C9">
            <path d="M26.3339844,584.399414 C25.8945312,583.959961 25.8945312,583.230469 26.3339844,582.791016 L36.0195312,573.105469 C36.0810547,573.043945 36.1865234,573 36.2744141,573 L42.875,573 C43.4990234,573 44,573.500977 44,574.125 L44,580.725586 C44,580.813477 43.9560547,580.918945 43.8945312,580.980469 L34.2089844,590.666016 C33.7695312,591.105469 33.0400391,591.105469 32.6005859,590.666016 L26.3339844,584.399414 Z M38.375,576.9375 C38.375,577.87793 39.1220703,578.625 40.0625,578.625 C41.0029297,578.625 41.75,577.87793 41.75,576.9375 C41.75,575.99707 41.0029297,575.25 40.0625,575.25 C39.1220703,575.25 38.375,575.99707 38.375,576.9375 Z" id="icon_topics"></path>
        </g>
    </g>
</svg>