<?xml version="1.0" encoding="UTF-8"?>
<svg width="14px" height="14px" viewBox="0 0 14 14" version="1.1" xmlns="http://www.w3.org/2000/svg" xmlns:xlink="http://www.w3.org/1999/xlink">
    <!-- Generator: Sketch 47.1 (45422) - http://www.bohemiancoding.com/sketch -->
    <title>icon_featured</title>
    <desc>Created with Sketch.</desc>
    <defs></defs>
    <g id="Page-6" stroke="none" stroke-width="1" fill="none" fill-rule="evenodd">
        <g id="Mobile---Landing" transform="translate(-100.000000, -557.000000)" fill="#E8A800">
            <g id="Group-2-Copy-2" transform="translate(20.000000, 542.000000)">
                <g id="Innovation-Copy-11">
                    <path d="M93.9188325,20.7497412 C94.000874,20.6745365 94.0145476,20.5446375 93.9872004,20.428412 C93.9393429,20.3121866 93.8231174,20.2506555 93.706892,20.2506555 L89.2356307,20.2506555 L87.2734716,15.1914301 C87.2256141,15.0820415 87.1162254,15 87,15 C86.8837746,15 86.7743859,15.0820415 86.7265284,15.1914301 L84.7643693,20.2506555 L80.293108,20.2506555 C80.1768826,20.2506555 80.0606571,20.3121866 80.0127996,20.428412 C79.9854524,20.5446375 79.999126,20.6745365 80.0811675,20.7497412 L83.4858894,24.1407895 L82.6244538,28.6599084 C82.6107802,28.7761338 82.6586377,28.8855225 82.7543528,28.9538904 C82.8500679,29.0154215 82.9799669,29.0154215 83.075682,28.9538904 L87,26.4242777 L90.924318,28.9538904 C90.9721756,28.9880744 91.0337067,29.0017479 91.0815642,29.0017479 C91.1294218,29.0017479 91.1977897,28.9880744 91.2456472,28.9538904 C91.3413623,28.8855225 91.3892198,28.7761338 91.3755462,28.6599084 L90.5141106,24.1407895 L93.9188325,20.7497412 Z" id="icon_featured"></path>
                </g>
            </g>
        </g>
    </g>
</svg>