<?xml version="1.0" encoding="UTF-8"?>
<svg width="14px" height="14px" viewBox="0 0 14 14" version="1.1" xmlns="http://www.w3.org/2000/svg" xmlns:xlink="http://www.w3.org/1999/xlink">
    <!-- Generator: Sketch 47.1 (45422) - http://www.bohemiancoding.com/sketch -->
    <title>icon_close</title>
    <desc>Created with Sketch.</desc>
    <defs></defs>
    <g id="Page-6" stroke="none" stroke-width="1" fill="none" fill-rule="evenodd">
        <g id="Mobile-filters---open" transform="translate(-337.000000, -25.000000)" fill="#FFFFFF">
            <path d="M350.929688,36.09375 L346.835938,32 L350.929688,27.90625 C350.984375,27.8359375 351.015625,27.7578125 351.015625,27.6640625 C351.015625,27.5703125 350.984375,27.5 350.929688,27.4296875 L348.570312,25.0703125 C348.5,25.015625 348.429688,24.984375 348.335938,24.984375 C348.242188,24.984375 348.164062,25.015625 348.09375,25.0703125 L344,29.1640625 L339.90625,25.0703125 C339.835938,25.015625 339.757812,24.984375 339.664062,24.984375 C339.570312,24.984375 339.5,25.015625 339.429688,25.0703125 L337.070312,27.4296875 C337.015625,27.5 336.984375,27.5703125 336.984375,27.6640625 C336.984375,27.7578125 337.015625,27.8359375 337.070312,27.90625 L341.164062,32 L337.070312,36.09375 C337.015625,36.1640625 336.984375,36.2421875 336.984375,36.3359375 C336.984375,36.4296875 337.015625,36.5 337.070312,36.5703125 L339.429688,38.9296875 C339.5,38.984375 339.570312,39.015625 339.664062,39.015625 C339.757812,39.015625 339.835938,38.984375 339.90625,38.9296875 L344,34.8359375 L348.09375,38.9296875 C348.164062,38.984375 348.242188,39.015625 348.335938,39.015625 C348.429688,39.015625 348.5,38.984375 348.570312,38.9296875 L350.929688,36.5703125 C350.984375,36.5 351.015625,36.4296875 351.015625,36.3359375 C351.015625,36.2421875 350.984375,36.1640625 350.929688,36.09375 Z" id="icon_close"></path>
        </g>
    </g>
</svg>