<?xml version="1.0" encoding="UTF-8"?>
<svg width="19px" height="19px" viewBox="0 0 19 19" version="1.1" xmlns="http://www.w3.org/2000/svg" xmlns:xlink="http://www.w3.org/1999/xlink">
    <!-- Generator: Sketch 47.1 (45422) - http://www.bohemiancoding.com/sketch -->
    <title>icon_clear</title>
    <desc>Created with Sketch.</desc>
    <defs></defs>
    <g id="Page-6" stroke="none" stroke-width="1" fill="none" fill-rule="evenodd">
        <g id="Mobile-Filters---Domain-selected" transform="translate(-27.000000, -712.000000)" fill="#FFFFFF">
            <path d="M46,712.414989 C46,712.250435 45.9128884,712.08588 45.7483444,712.018122 C45.5838003,711.979403 45.3998981,711.998763 45.2934284,712.114919 L42.2154865,715.212421 C40.589404,713.721748 38.4503311,712.821537 36.0886398,712.821537 C31.0845644,712.821537 27,716.906367 27,721.910768 C27,726.91517 31.0845644,731 36.0886398,731 C38.430973,731 40.589404,730.099789 42.1961284,728.638155 C42.2154865,728.638155 42.2154865,728.609116 42.2154865,728.609116 C42.2832399,728.541358 42.3316353,728.454241 42.3316353,728.338084 C42.3316353,728.221928 42.3025981,728.125131 42.2154865,728.057373 L42.2154865,728.038014 L40.444218,726.26663 C40.3087112,726.131114 40.0570555,726.111755 39.8925115,726.26663 C38.8665308,727.137802 37.5308202,727.689545 36.0886398,727.689545 C32.9042282,727.689545 30.3102394,725.095387 30.3102394,721.910768 C30.3102394,718.726149 32.9042282,716.131992 36.0886398,716.131992 C37.5308202,716.131992 38.8665308,716.654695 39.8731533,717.554906 L37.4437086,719.96515 C37.3275599,720.071627 37.3082017,720.255541 37.346918,720.420096 C37.4146714,720.58465 37.5792155,720.671768 37.7437596,720.671768 L45.5838003,720.671768 C45.8160978,720.671768 46,720.487853 46,720.255541 L46,712.414989 Z" id="icon_clear"></path>
        </g>
    </g>
</svg>