<?xml version="1.0" encoding="UTF-8"?>
<svg width="18px" height="18px" viewBox="0 0 18 18" version="1.1" xmlns="http://www.w3.org/2000/svg" xmlns:xlink="http://www.w3.org/1999/xlink">
    <!-- Generator: Sketch 47.1 (45422) - http://www.bohemiancoding.com/sketch -->
    <title>icon_location</title>
    <desc>Created with Sketch.</desc>
    <defs></defs>
    <g id="Bhub-3.0-v2" stroke="none" stroke-width="1" fill="none" fill-rule="evenodd">
        <g id="Mobile-Filters---Domain-selected" transform="translate(-26.000000, -505.000000)" fill="#C9C9C9">
            <path d="M35,505 C39.9833984,505 44,509.016602 44,514 C44,518.983398 39.9833984,523 35,523 C30.0166016,523 26,518.983398 26,514 C26,509.016602 30.0166016,505 35,505 Z M36.125,521.12793 C37.25,521.12793 39.5,519.24707 39.5,516.62793 C39.5,515.168945 38.3310547,514 36.8720703,514 L35.3779297,514 C34.2529297,514 33.4970703,513.4375 33.4970703,512.69043 C33.4970703,512.163086 33.9189453,511.75 34.4375,511.75 C35.1845703,511.75 35.2109375,512.49707 35.7470703,512.49707 C36.1689453,512.49707 36.5029297,512.163086 36.5029297,511.75 C36.5029297,511.020508 36.1425781,510.642578 35.7910156,510.291016 C36.0019531,509.895508 36.4765625,508.858398 36.5029297,507.355469 C36.5029297,507.170898 36.3710938,507.003906 36.1865234,506.977539 C35.7910156,506.916016 35.3955078,506.87207 35,506.87207 C31.8359375,506.977539 29.7529297,508.480469 29.7529297,511.00293 C29.7529297,513.25293 31.625,515.125 33.875,515.125 L33.9365234,515.125 C33.8925781,515.30957 33.875,515.50293 33.875,515.6875 C33.875,516.830078 34.6660156,517.814453 35.7470703,518.060547 L35.7470703,520.75 C35.7470703,520.960938 35.9140625,521.12793 36.125,521.12793 Z" id="icon_location"></path>
        </g>
    </g>
</svg>