<?xml version="1.0" encoding="UTF-8"?>
<svg width="18px" height="18px" viewBox="0 0 18 18" version="1.1" xmlns="http://www.w3.org/2000/svg" xmlns:xlink="http://www.w3.org/1999/xlink">
    <!-- Generator: Sketch 47.1 (45422) - http://www.bohemiancoding.com/sketch -->
    <title>icon_topics</title>
    <desc>Created with Sketch.</desc>
    <defs></defs>
    <g id="Page-6" stroke="none" stroke-width="1" fill="none" fill-rule="evenodd">
        <g id="Mobile-filters---open" transform="translate(-26.000000, -235.000000)" fill="#C9C9C9">
            <path d="M26.3339844,246.399414 C25.8945312,245.959961 25.8945312,245.230469 26.3339844,244.791016 L36.0195312,235.105469 C36.0810547,235.043945 36.1865234,235 36.2744141,235 L42.875,235 C43.4990234,235 44,235.500977 44,236.125 L44,242.725586 C44,242.813477 43.9560547,242.918945 43.8945312,242.980469 L34.2089844,252.666016 C33.7695312,253.105469 33.0400391,253.105469 32.6005859,252.666016 L26.3339844,246.399414 Z M38.375,238.9375 C38.375,239.87793 39.1220703,240.625 40.0625,240.625 C41.0029297,240.625 41.75,239.87793 41.75,238.9375 C41.75,237.99707 41.0029297,237.25 40.0625,237.25 C39.1220703,237.25 38.375,237.99707 38.375,238.9375 Z" id="icon_topics"></path>
        </g>
    </g>
</svg>