<?xml version="1.0" encoding="UTF-8"?>
<svg width="20px" height="20px" viewBox="0 0 20 20" version="1.1" xmlns="http://www.w3.org/2000/svg" xmlns:xlink="http://www.w3.org/1999/xlink">
    <!-- Generator: Sketch 47.1 (45422) - http://www.bohemiancoding.com/sketch -->
    <title>icon_menu</title>
    <desc>Created with Sketch.</desc>
    <defs></defs>
    <g id="Page-6" stroke="none" stroke-width="1" fill="none" fill-rule="evenodd">
        <g id="Mobile---Landing" transform="translate(-337.000000, -23.000000)" fill="#C9C9C9">
            <path d="M356,39.5 L357,42.5 C357,42.6481489 356.94856,42.7685181 356.845679,42.8611111 C356.742798,42.9537042 356.609054,43 356.444444,43 L337.555556,43 C337.390946,43 337.257202,42.9537042 337.154321,42.8611111 C337.05144,42.7685181 337,42.6481489 337,42.5 L337,39.5 C337,39.3518511 337.05144,39.2314819 337.154321,39.1388889 C337.257202,39.0462958 337.390946,39 337.555556,39 L356.444444,39 C356.609054,39 356.742798,39.0462958 356.845679,39.1388889 C356.94856,39.2314819 357,39.3518511 357,39.5 L356,39.5 Z M357,34.5 C357,34.6481489 356.94856,34.7685181 356.845679,34.8611111 C356.742798,34.9537042 356.609054,35 356.444444,35 L337.555556,35 C337.390946,35 337.257202,34.9537042 337.154321,34.8611111 C337.05144,34.7685181 337,34.6481489 337,34.5 L337,31.5 C337,31.3518511 337.05144,31.2314819 337.154321,31.1388889 C337.257202,31.0462958 337.390946,31 337.555556,31 L356.444444,31 C356.609054,31 356.742798,31.0462958 356.845679,31.1388889 C356.94856,31.2314819 357,31.3518511 357,31.5 L357,34.5 Z M357,26.5 C357,26.6481489 356.94856,26.7685181 356.845679,26.8611111 C356.742798,26.9537042 356.609054,27 356.444444,27 L337.555556,27 C337.390946,27 337.257202,26.9537042 337.154321,26.8611111 C337.05144,26.7685181 337,26.6481489 337,26.5 L337,23.5 C337,23.3518511 337.05144,23.2314819 337.154321,23.1388889 C337.257202,23.0462958 337.390946,23 337.555556,23 L356.444444,23 C356.609054,23 356.742798,23.0462958 356.845679,23.1388889 C356.94856,23.2314819 357,23.3518511 357,23.5 L357,26.5 Z" id="icon_menu"></path>
        </g>
    </g>
</svg>