<?xml version="1.0" encoding="UTF-8"?>
<svg width="18px" height="18px" viewBox="0 0 18 18" version="1.1" xmlns="http://www.w3.org/2000/svg" xmlns:xlink="http://www.w3.org/1999/xlink">
    <!-- Generator: Sketch 47.1 (45422) - http://www.bohemiancoding.com/sketch -->
    <title>icon_location</title>
    <desc>Created with Sketch.</desc>
    <defs></defs>
    <g id="Page-6" stroke="none" stroke-width="1" fill="none" fill-rule="evenodd">
        <g id="Mobile-filters---open" transform="translate(-26.000000, -167.000000)" fill="#C9C9C9">
            <path d="M35,167 C39.9833984,167 44,171.016602 44,176 C44,180.983398 39.9833984,185 35,185 C30.0166016,185 26,180.983398 26,176 C26,171.016602 30.0166016,167 35,167 Z M36.125,183.12793 C37.25,183.12793 39.5,181.24707 39.5,178.62793 C39.5,177.168945 38.3310547,176 36.8720703,176 L35.3779297,176 C34.2529297,176 33.4970703,175.4375 33.4970703,174.69043 C33.4970703,174.163086 33.9189453,173.75 34.4375,173.75 C35.1845703,173.75 35.2109375,174.49707 35.7470703,174.49707 C36.1689453,174.49707 36.5029297,174.163086 36.5029297,173.75 C36.5029297,173.020508 36.1425781,172.642578 35.7910156,172.291016 C36.0019531,171.895508 36.4765625,170.858398 36.5029297,169.355469 C36.5029297,169.170898 36.3710938,169.003906 36.1865234,168.977539 C35.7910156,168.916016 35.3955078,168.87207 35,168.87207 C31.8359375,168.977539 29.7529297,170.480469 29.7529297,173.00293 C29.7529297,175.25293 31.625,177.125 33.875,177.125 L33.9365234,177.125 C33.8925781,177.30957 33.875,177.50293 33.875,177.6875 C33.875,178.830078 34.6660156,179.814453 35.7470703,180.060547 L35.7470703,182.75 C35.7470703,182.960938 35.9140625,183.12793 36.125,183.12793 Z" id="icon_location"></path>
        </g>
    </g>
</svg>