<?xml version="1.0" encoding="UTF-8"?>
<svg width="18px" height="16px" viewBox="0 0 18 16" version="1.1" xmlns="http://www.w3.org/2000/svg" xmlns:xlink="http://www.w3.org/1999/xlink">
    <!-- Generator: Sketch 47.1 (45422) - http://www.bohemiancoding.com/sketch -->
    <title>icon_field of work</title>
    <desc>Created with Sketch.</desc>
    <defs></defs>
    <g id="Page-6" stroke="none" stroke-width="1" fill="none" fill-rule="evenodd">
        <g id="Mobile-filters---open" transform="translate(-26.000000, -96.000000)" fill="#C9C9C9">
            <path d="M42.875,99.375 C43.4990234,99.375 44,99.8759766 44,100.5 L44,110.625 C44,111.249023 43.4990234,111.75 42.875,111.75 L27.125,111.75 C26.5009766,111.75 26,111.249023 26,110.625 L26,100.5 C26,99.8759766 26.5009766,99.375 27.125,99.375 L31.625,99.375 L31.625,97.5029297 C31.625,96.9404297 31.9150391,96.5449219 32.5214844,96.3164062 C33.0400391,96.1054688 33.8310547,96 35,96 C36.1689453,96 36.9599609,96.1054688 37.4785156,96.3164062 C38.0849609,96.5449219 38.375,96.9404297 38.375,97.5029297 L38.375,99.375 L42.875,99.375 Z M33.4970703,97.8720703 L33.4970703,99.375 L36.5029297,99.375 L36.5029297,97.8720703 L33.4970703,97.8720703 Z" id="icon_field-of-work"></path>
        </g>
    </g>
</svg>