<?xml version="1.0" encoding="UTF-8"?>
<svg width="14px" height="18px" viewBox="0 0 14 18" version="1.1" xmlns="http://www.w3.org/2000/svg" xmlns:xlink="http://www.w3.org/1999/xlink">
    <title>icon-document</title>
    <g id="Page-1" stroke="none" stroke-width="1" fill="none" fill-rule="evenodd">
        <g id="Resources-Desktop" transform="translate(-845.000000, -1106.000000)" fill="#FF6B39" fill-rule="nonzero">
            <g id="Group-10" transform="translate(575.000000, 778.000000)">
                <g id="Group-3-Copy-3" transform="translate(160.000000, 312.000000)">
                    <g id="Group-Copy" transform="translate(110.000000, 16.000000)">
                        <path d="M12.625,18 C12.9305556,18 13.1944444,17.8888889 13.4166667,17.6666667 C13.6388889,17.4444444 13.75,17.1805556 13.75,16.875 L13.75,16.875 L13.75,6 C13.75,5.91666667 13.7152778,5.82638889 13.6458333,5.72916667 L13.6458333,5.72916667 L8.02083333,0.104166667 C7.92361111,0.0347222222 7.83333333,0 7.75,0 L7.75,0 L1.375,0 C1.06944444,0 0.805555556,0.111111111 0.583333333,0.333333333 C0.361111111,0.555555556 0.25,0.819444444 0.25,1.125 L0.25,1.125 L0.25,16.875 C0.25,17.1805556 0.361111111,17.4444444 0.583333333,17.6666667 C0.805555556,17.8888889 1.06944444,18 1.375,18 L1.375,18 L12.625,18 Z M12.625,18 C12.9305556,18 13.1944444,17.8888889 13.4166667,17.6666667 C13.6388889,17.4444444 13.75,17.1805556 13.75,16.875 L13.75,16.875 L13.75,6 C13.75,5.91666667 13.7152778,5.82638889 13.6458333,5.72916667 L13.6458333,5.72916667 L8.02083333,0.104166667 C7.92361111,0.0347222222 7.83333333,0 7.75,0 L7.75,0 L1.375,0 C1.06944444,0 0.805555556,0.111111111 0.583333333,0.333333333 C0.361111111,0.555555556 0.25,0.819444444 0.25,1.125 L0.25,1.125 L0.25,16.875 C0.25,17.1805556 0.361111111,17.4444444 0.583333333,17.6666667 C0.805555556,17.8888889 1.06944444,18 1.375,18 L1.375,18 L12.625,18 Z" id="icon-document"></path>
                    </g>
                </g>
            </g>
        </g>
    </g>
</svg>