<?xml version="1.0" encoding="UTF-8"?>
<svg width="10px" height="12px" viewBox="0 0 10 12" version="1.1" xmlns="http://www.w3.org/2000/svg" xmlns:xlink="http://www.w3.org/1999/xlink">
    <title>icon-lock</title>
    <g id="Page-1" stroke="none" stroke-width="1" fill="none" fill-rule="evenodd">
        <g id="Resources-Desktop" transform="translate(-195.000000, -690.000000)" fill="#058BAB" fill-rule="nonzero">
            <g id="sidebar" transform="translate(0.000000, 377.000000)">
                <path d="M203.75,324.999999 C203.953704,324.999999 204.12963,324.925925 204.277778,324.777777 C204.425926,324.629629 204.5,324.453703 204.5,324.249999 L204.5,324.249999 L204.5,318.999999 C204.5,318.796295 204.425926,318.620369 204.277778,318.472221 C204.12963,318.324073 203.953704,318.249999 203.75,318.249999 L203.75,318.249999 L203,318.249999 L203,315.999999 C203,315.175925 202.706019,314.469906 202.118056,313.881943 C201.530093,313.293981 200.824074,312.999999 200,312.999999 C199.175926,312.999999 198.469907,313.293981 197.881944,313.881943 C197.293981,314.469906 197,315.175925 197,315.999999 L197,315.999999 L197,318.249999 L196.25,318.249999 C196.046296,318.249999 195.87037,318.324073 195.722222,318.472221 C195.574074,318.620369 195.5,318.796295 195.5,318.999999 L195.5,318.999999 L195.5,324.249999 C195.5,324.453703 195.574074,324.629629 195.722222,324.777777 C195.87037,324.925925 196.046296,324.999999 196.25,324.999999 L196.25,324.999999 L203.75,324.999999 Z M201.5,318.249999 L198.5,318.249999 L198.5,315.999999 C198.5,315.583332 198.645833,315.229166 198.9375,314.937499 C199.229167,314.645832 199.583333,314.499999 200,314.499999 C200.416667,314.499999 200.770833,314.645832 201.0625,314.937499 C201.354167,315.229166 201.5,315.583332 201.5,315.999999 L201.5,315.999999 L201.5,318.249999 Z M203.75,324.999999 C203.953704,324.999999 204.12963,324.925925 204.277778,324.777777 C204.425926,324.629629 204.5,324.453703 204.5,324.249999 L204.5,324.249999 L204.5,318.999999 C204.5,318.796295 204.425926,318.620369 204.277778,318.472221 C204.12963,318.324073 203.953704,318.249999 203.75,318.249999 L203.75,318.249999 L203,318.249999 L203,315.999999 C203,315.175925 202.706019,314.469906 202.118056,313.881943 C201.530093,313.293981 200.824074,312.999999 200,312.999999 C199.175926,312.999999 198.469907,313.293981 197.881944,313.881943 C197.293981,314.469906 197,315.175925 197,315.999999 L197,315.999999 L197,318.249999 L196.25,318.249999 C196.046296,318.249999 195.87037,318.324073 195.722222,318.472221 C195.574074,318.620369 195.5,318.796295 195.5,318.999999 L195.5,318.999999 L195.5,324.249999 C195.5,324.453703 195.574074,324.629629 195.722222,324.777777 C195.87037,324.925925 196.046296,324.999999 196.25,324.999999 L196.25,324.999999 L203.75,324.999999 Z M201.5,318.249999 L198.5,318.249999 L198.5,315.999999 C198.5,315.583332 198.645833,315.229166 198.9375,314.937499 C199.229167,314.645832 199.583333,314.499999 200,314.499999 C200.416667,314.499999 200.770833,314.645832 201.0625,314.937499 C201.354167,315.229166 201.5,315.583332 201.5,315.999999 L201.5,315.999999 L201.5,318.249999 Z" id="icon-lock"></path>
            </g>
        </g>
    </g>
</svg>