<?xml version="1.0" encoding="UTF-8"?>
<svg width="19px" height="19px" viewBox="0 0 19 19" version="1.1" xmlns="http://www.w3.org/2000/svg" xmlns:xlink="http://www.w3.org/1999/xlink">
    <!-- Generator: Sketch 51.3 (57544) - http://www.bohemiancoding.com/sketch -->
    <title>icon-search</title>
    <desc>Created with Sketch.</desc>
    <defs></defs>
    <g id="Toolkit-Handoff" stroke="none" stroke-width="1" fill="none" fill-rule="evenodd">
        <g id="Info-Page-Template" transform="translate(-1187.000000, -60.000000)" fill="#4A4A4A">
            <g id="Group-5" transform="translate(0.000000, -4.000000)">
                <g id="Navigation" transform="translate(549.000000, 64.000000)">
                    <path d="M649.877319,0 C645.943726,0 642.752319,3.19140625 642.752319,7.125 C642.752319,8.53515625 643.151245,9.83398438 643.856323,10.9287109 L638.466187,16.2910156 C637.844604,16.9125977 637.844604,17.9238281 638.466187,18.5361328 C638.772339,18.8422852 639.171265,19 639.588745,19 C639.978394,19 640.395874,18.8422852 640.711304,18.5361328 L646.073608,13.1459961 C647.168335,13.8510742 648.467163,14.25 649.877319,14.25 C653.810913,14.25 657.002319,11.0585938 657.002319,7.125 C657.002319,3.19140625 653.810913,0 649.877319,0 L649.877319,0 Z M649.877319,11.875 C647.261108,11.875 645.127319,9.74121094 645.127319,7.125 C645.127319,4.50878906 647.261108,2.375 649.877319,2.375 C652.49353,2.375 654.627319,4.50878906 654.627319,7.125 C654.627319,9.74121094 652.49353,11.875 649.877319,11.875 L649.877319,11.875 Z" id="icon-search"></path>
                </g>
            </g>
        </g>
    </g>
</svg>