<?xml version="1.0" encoding="UTF-8"?>
<svg width="20px" height="20px" viewBox="0 0 20 20" version="1.1" xmlns="http://www.w3.org/2000/svg" xmlns:xlink="http://www.w3.org/1999/xlink">
    <!-- Generator: Sketch 48.2 (47327) - http://www.bohemiancoding.com/sketch -->
    <title>icon_menu</title>
    <desc>Created with Sketch.</desc>
    <defs></defs>
    <g id="Home---Mobile" stroke="none" stroke-width="1" fill="none" fill-rule="evenodd" transform="translate(-326.000000, -18.000000)">
        <path d="M346,34.5 L346,37.5 C346,37.6481489 345.94856,37.7685181 345.845679,37.8611111 C345.742798,37.9537042 345.609054,38 345.444444,38 L326.555556,38 C326.390946,38 326.257202,37.9537042 326.154321,37.8611111 C326.05144,37.7685181 326,37.6481489 326,37.5 L326,34.5 C326,34.3518511 326.05144,34.2314819 326.154321,34.1388889 C326.257202,34.0462958 326.390946,34 326.555556,34 L345.444444,34 C345.609054,34 345.742798,34.0462958 345.845679,34.1388889 C345.94856,34.2314819 346,34.3518511 346,34.5 L346,34.5 Z M346,26.5 L346,29.5 C346,29.6481489 345.94856,29.7685181 345.845679,29.8611111 C345.742798,29.9537042 345.609054,30 345.444444,30 L326.555556,30 C326.390946,30 326.257202,29.9537042 326.154321,29.8611111 C326.05144,29.7685181 326,29.6481489 326,29.5 L326,26.5 C326,26.3518511 326.05144,26.2314819 326.154321,26.1388889 C326.257202,26.0462958 326.390946,26 326.555556,26 L345.444444,26 C345.609054,26 345.742798,26.0462958 345.845679,26.1388889 C345.94856,26.2314819 346,26.3518511 346,26.5 L346,26.5 Z M346,18.5 L346,21.5 C346,21.6481489 345.94856,21.7685181 345.845679,21.8611111 C345.742798,21.9537042 345.609054,22 345.444444,22 L326.555556,22 C326.390946,22 326.257202,21.9537042 326.154321,21.8611111 C326.05144,21.7685181 326,21.6481489 326,21.5 L326,18.5 C326,18.3518511 326.05144,18.2314819 326.154321,18.1388889 C326.257202,18.0462958 326.390946,18 326.555556,18 L345.444444,18 C345.609054,18 345.742798,18.0462958 345.845679,18.1388889 C345.94856,18.2314819 346,18.3518511 346,18.5 L346,18.5 Z" id="icon_menu" fill="#4A4A4A"></path>
    </g>
</svg>