<?xml version="1.0" encoding="UTF-8"?>
<svg width="16px" height="16px" viewBox="0 0 16 16" version="1.1" xmlns="http://www.w3.org/2000/svg" xmlns:xlink="http://www.w3.org/1999/xlink">
    <!-- Generator: Sketch 48.2 (47327) - http://www.bohemiancoding.com/sketch -->
    <title>icon_x</title>
    <desc>Created with Sketch.</desc>
    <defs></defs>
    <g id="Menu_Open" stroke="none" stroke-width="1" fill="none" fill-rule="evenodd" transform="translate(-328.000000, -20.000000)">
        <path d="M343.688477,32.4980469 L339.083008,27.8925781 L343.688477,23.2871094 C343.75,23.2080078 343.785156,23.1201172 343.785156,23.0146484 C343.785156,22.9091797 343.75,22.8300781 343.688477,22.7509766 L341.03418,20.0966797 C340.955078,20.0351562 340.875977,20 340.770508,20 C340.665039,20 340.577148,20.0351562 340.498047,20.0966797 L335.892578,24.7021484 L331.287109,20.0966797 C331.208008,20.0351562 331.120117,20 331.014648,20 C330.90918,20 330.830078,20.0351562 330.750977,20.0966797 L328.09668,22.7509766 C328.035156,22.8300781 328,22.9091797 328,23.0146484 C328,23.1201172 328.035156,23.2080078 328.09668,23.2871094 L332.702148,27.8925781 L328.09668,32.4980469 C328.035156,32.5771484 328,32.6650391 328,32.7705078 C328,32.8759766 328.035156,32.9550781 328.09668,33.0341797 L330.750977,35.6884766 C330.830078,35.75 330.90918,35.7851562 331.014648,35.7851562 C331.120117,35.7851562 331.208008,35.75 331.287109,35.6884766 L335.892578,31.0830078 L340.498047,35.6884766 C340.577148,35.75 340.665039,35.7851562 340.770508,35.7851562 C340.875977,35.7851562 340.955078,35.75 341.03418,35.6884766 L343.688477,33.0341797 C343.75,32.9550781 343.785156,32.8759766 343.785156,32.7705078 C343.785156,32.6650391 343.75,32.5771484 343.688477,32.4980469 Z" id="icon_x" fill="#FFFFFF"></path>
    </g>
</svg>