<?xml version="1.0" encoding="UTF-8"?>
<svg width="19px" height="19px" viewBox="0 0 19 19" version="1.1" xmlns="http://www.w3.org/2000/svg" xmlns:xlink="http://www.w3.org/1999/xlink">
    <!-- Generator: Sketch 48.2 (47327) - http://www.bohemiancoding.com/sketch -->
    <title>icon_plus</title>
    <desc>Created with Sketch.</desc>
    <defs></defs>
    <g id="Menu_Open" stroke="none" stroke-width="1" fill="none" fill-rule="evenodd" transform="translate(-317.000000, -134.000000)">
        <path d="M333.957689,147.76726 L329.352221,143.161791 L333.957689,138.556322 C334.019213,138.477221 334.054369,138.38933 334.054369,138.283861 C334.054369,138.178393 334.019213,138.099291 333.957689,138.020189 L331.303393,135.365893 C331.224291,135.304369 331.145189,135.269213 331.039721,135.269213 C330.934252,135.269213 330.846361,135.304369 330.76726,135.365893 L326.161791,139.971361 L321.556322,135.365893 C321.477221,135.304369 321.38933,135.269213 321.283861,135.269213 C321.178393,135.269213 321.099291,135.304369 321.020189,135.365893 L318.365893,138.020189 C318.304369,138.099291 318.269213,138.178393 318.269213,138.283861 C318.269213,138.38933 318.304369,138.477221 318.365893,138.556322 L322.971361,143.161791 L318.365893,147.76726 C318.304369,147.846361 318.269213,147.934252 318.269213,148.039721 C318.269213,148.145189 318.304369,148.224291 318.365893,148.303393 L321.020189,150.957689 C321.099291,151.019213 321.178393,151.054369 321.283861,151.054369 C321.38933,151.054369 321.477221,151.019213 321.556322,150.957689 L326.161791,146.352221 L330.76726,150.957689 C330.846361,151.019213 330.934252,151.054369 331.039721,151.054369 C331.145189,151.054369 331.224291,151.019213 331.303393,150.957689 L333.957689,148.303393 C334.019213,148.224291 334.054369,148.145189 334.054369,148.039721 C334.054369,147.934252 334.019213,147.846361 333.957689,147.76726 Z" id="icon_plus" fill="#4D001B" transform="translate(326.161791, 143.161791) rotate(-45.000000) translate(-326.161791, -143.161791) "></path>
    </g>
</svg>